<svg xmlns="http://www.w3.org/2000/svg" width="430" height="430" style="width:100%;height:100%;transform:translate3d(0,0,0);content-visibility:visible" viewBox="0 0 430 430"><defs><clipPath id="e"><path d="M0 0h430v430H0z"/></clipPath><clipPath id="h"><path d="M0 0h430v430H0z"/></clipPath><clipPath id="f"><path d="M0 0h430v430H0z"/></clipPath><filter id="a" width="100%" height="100%" x="0%" y="0%" filterUnits="objectBoundingBox"><feComponentTransfer in="SourceGraphic"><feFuncA tableValues="1.0 0.0" type="table"/></feComponentTransfer></filter><filter id="c" width="100%" height="100%" x="0%" y="0%" filterUnits="objectBoundingBox"><feComponentTransfer in="SourceGraphic"><feFuncA tableValues="1.0 0.0" type="table"/></feComponentTransfer></filter><path id="b" style="display:none"/><path id="d" fill="red" d="M103.284-292.24-14.252 97l-155.709-.111 106.5-390" style="display:block" transform="translate(174.46 375.111)"/><mask id="i" mask-type="alpha"><g filter="url(#a)"><path fill="#fff" d="M0 0h430v430H0z" opacity="0"/><use xmlns:ns1="http://www.w3.org/1999/xlink" ns1:href="#b"/></g></mask><mask id="g" mask-type="alpha"><g filter="url(#c)"><path fill="#fff" d="M0 0h430v430H0z" opacity="0"/><use xmlns:ns2="http://www.w3.org/1999/xlink" ns2:href="#d"/></g></mask></defs><g clip-path="url(#e)"><g clip-path="url(#f)" style="display:block"><g mask="url(#g)" style="display:block"><path fill="none" stroke="#121330" stroke-linecap="round" stroke-linejoin="round" stroke-width="11.97" d="M327.232 338.861h-67.994m48.567-63.734h-67.983m48.589-63.733h-49.826m24.913-81.759 74.783 245.473h28.505L277.745 82.875v-.011m-48.249 158.371 40.791 133.884h-28.505l-26.533-87.113" class="primary"/></g><path fill="none" stroke="#121330" stroke-linecap="round" stroke-linejoin="round" stroke-width="11.97" d="M-82.238 0 6.798-292.24M-3.681-36.247h-72.976m92.488-63.736h-72.975m92.739-63.737H-37.38m92.321-63.737h-72.975m121.318-64.783L14.248 0m-124.982 0 89.036-292.24M-14.248 0l89.036-292.24M-110.734 0h28.496m67.99 0h28.496" class="primary" style="display:block" transform="translate(174.46 375.111)"/><path fill="none" stroke="#07A889" stroke-linecap="round" stroke-linejoin="round" stroke-width="11.97" d="M69.75 13.265h-139.5v-26.53h139.5z" class="secondary" style="display:block" transform="translate(215.75 68.598)"/></g><g fill="none" clip-path="url(#h)" style="display:none"><g mask="url(#i)" style="display:none"><path class="primary"/><path class="primary"/><path class="primary"/><path class="primary"/><path class="primary"/></g><g style="display:none"><path class="primary"/><path class="primary"/><path class="primary"/><path class="primary"/><path class="primary"/><path class="primary"/></g><path class="secondary" style="display:none"/></g></g></svg>