<svg width="430" height="430" viewBox="0 0 430 430" fill="none" xmlns="http://www.w3.org/2000/svg">
<path d="M156.564 210.382C130.162 218.519 100.241 212.136 79.3391 191.234C58.4371 170.332 52.0535 140.411 60.1909 114.008L100.389 154.206C106.405 160.223 116.158 160.225 122.172 154.211L151.211 125.172C157.225 119.158 157.223 109.405 151.206 103.389L111.008 63.191C137.411 55.0536 167.332 61.4372 188.234 82.3392C209.136 103.241 215.519 133.162 207.382 159.564L345.117 297.299C358.754 310.937 358.758 333.043 345.127 346.675L343.675 348.127C330.043 361.759 307.937 361.754 294.299 348.117L156.564 210.382Z" stroke="#121331" stroke-width="12" stroke-linejoin="round"/>
<path d="M311.167 312.752L317.531 319.116" stroke="#08A88A" stroke-width="18" stroke-linecap="round"/>
</svg>
