<?xml version="1.0" encoding="UTF-8"?>
<svg version="1.1" xmlns="http://www.w3.org/2000/svg" width="817" height="231">
<path d="M0 0 C0.66 -0.66 1.32 -1.32 2 -2 C4.9093558 -2.14517744 7.719946 -2.18630796 10.625 -2.125 C11.42679688 -2.11597656 12.22859375 -2.10695313 13.0546875 -2.09765625 C15.03658523 -2.07406223 17.01832981 -2.03819065 19 -2 C19.0931181 6.04141327 19.16397484 14.08259727 19.20724869 22.12441826 C19.22802924 25.8595079 19.25616923 29.5942258 19.30175781 33.32910156 C19.34556031 36.94069135 19.36920859 40.551926 19.37950897 44.16376114 C19.38683928 45.53434964 19.40115198 46.90492106 19.42292023 48.27535629 C19.56754521 57.76703177 18.95344846 65.92779366 12.95703125 73.62109375 C12.24933594 74.22050781 11.54164063 74.81992188 10.8125 75.4375 C10.11769531 76.05496094 9.42289063 76.67242187 8.70703125 77.30859375 C2.13425919 81.41539072 -4.60307139 82.53550715 -12.25 82.4375 C-13.48399536 82.42831543 -13.48399536 82.42831543 -14.74291992 82.41894531 C-24.30111721 82.17656442 -33.42045115 80.06363908 -41 74 C-39.40956621 68.91061189 -36.2553049 65.12543357 -33 61 C-31.85724609 61.52400391 -31.85724609 61.52400391 -30.69140625 62.05859375 C-21.2859099 66.20358777 -13.91294673 68.52833697 -4 65 C-0.82756359 62.72235334 -0.13302777 61.57645369 0.75 57.75 C0.8325 56.8425 0.915 55.935 1 55 C0.0925 55.474375 -0.815 55.94875 -1.75 56.4375 C-10.92113843 60.29417592 -20.86846063 59.56478765 -30 56 C-38.59160124 51.15564772 -44.00467066 44.07434947 -46.6875 34.5625 C-47.75000735 25.84993971 -46.43145791 18.59275382 -42.3125 10.8125 C-31.32746945 -2.54767228 -16.17737738 -6.7106158 0 0 Z M-26.25 17.375 C-29.79991138 22.69986707 -30.33252699 26.30670984 -29.55078125 32.6171875 C-28.79967192 35.86666759 -27.4515355 37.77133136 -25 40 C-24.34 40 -23.68 40 -23 40 C-23 40.66 -23 41.32 -23 42 C-17.53318556 44.44568014 -12.73757009 44.28745475 -7 43 C-2.58496854 40.75234762 0.02776368 38.5672841 2 34 C3.36240602 27.96648761 3.25650588 24.49535367 0 19 C-3.44304626 15.23469818 -6.72395978 12.27056617 -12 12 C-12.969375 11.9175 -13.93875 11.835 -14.9375 11.75 C-19.83081716 12.14945446 -22.88926391 13.82755635 -26.25 17.375 Z " fill="#FEFEFE" transform="translate(587,85)"/>
<path d="M0 0 C1.68396145 1.02705042 1.68396145 1.02705042 3.70703125 0.875 C4.03703125 -0.115 4.36703125 -1.105 4.70703125 -2.125 C10.31703125 -2.125 15.92703125 -2.125 21.70703125 -2.125 C23.07782706 10.65894016 22.59325849 23.35554253 22.26953125 36.1875 C22.21620589 38.48891867 22.16346655 40.79035101 22.11132812 43.09179688 C21.9833222 48.68637834 21.84737369 54.28071496 21.70703125 59.875 C16.09703125 59.875 10.48703125 59.875 4.70703125 59.875 C4.21203125 57.895 4.21203125 57.895 3.70703125 55.875 C3.1759375 56.15214844 2.64484375 56.42929688 2.09765625 56.71484375 C1.03804688 57.25818359 1.03804688 57.25818359 -0.04296875 57.8125 C-0.7390625 58.17214844 -1.43515625 58.53179687 -2.15234375 58.90234375 C-9.37635734 62.18478788 -18.16039857 61.98668177 -25.54296875 59.3125 C-33.66743941 55.58987277 -39.13782034 50.23864737 -42.29296875 41.875 C-45.18857349 33.79778679 -46.58340029 25.20153271 -43.3671875 17.06640625 C-39.2992334 8.76777988 -33.9858982 1.4820343 -25.16796875 -2 C-16.53823924 -4.45932565 -7.94886789 -4.24726151 0 0 Z M-24.16796875 17.8125 C-27.50029597 22.61497159 -28.04226986 27.04944769 -27.29296875 32.875 C-25.8779395 37.33840655 -24.02572726 40.23994263 -20.48046875 43.3125 C-14.89399807 46.05096602 -10.05911553 46.36606535 -4.15234375 44.671875 C0.24136989 42.78885487 2.95782682 39.19430743 4.70703125 34.875 C5.35630086 29.52230057 5.62944045 23.81628601 3.20703125 18.875 C-0.76056576 14.11388359 -4.73248373 12.18944553 -10.85546875 11.4375 C-16.31875079 12.1328268 -20.49412032 13.64247089 -24.16796875 17.8125 Z " fill="#FEFEFE" transform="translate(364.29296875,85.125)"/>
<path d="M0 0 C1.14984375 -0.00257812 2.2996875 -0.00515625 3.484375 -0.0078125 C5.28648437 0.00378906 5.28648437 0.00378906 7.125 0.015625 C8.32640625 0.00789063 9.5278125 0.00015625 10.765625 -0.0078125 C12.49039063 -0.00394531 12.49039063 -0.00394531 14.25 0 C15.83167969 0.00338379 15.83167969 0.00338379 17.4453125 0.00683594 C20.125 0.265625 20.125 0.265625 23.125 2.265625 C23.2075 3.565 23.29 4.864375 23.375 6.203125 C23.46398627 8.34307905 23.46398627 8.34307905 24.125 10.265625 C26.41081205 11.95369443 28.34491535 12.4568731 31.125 13.265625 C31.846875 12.42 32.56875 11.574375 33.3125 10.703125 C36.125 8.265625 36.125 8.265625 38.54003906 8.38134766 C41.58682479 9.42360851 43.04023885 10.69264127 45.296875 12.9765625 C46.41642578 14.10191406 46.41642578 14.10191406 47.55859375 15.25 C48.32300781 16.03890625 49.08742188 16.8278125 49.875 17.640625 C50.65488281 18.42179687 51.43476563 19.20296875 52.23828125 20.0078125 C57.98442293 25.84389379 57.98442293 25.84389379 59.125 29.265625 C57.8875 30.7196875 57.8875 30.7196875 56.625 32.203125 C53.86736212 34.87471996 53.86736212 34.87471996 54.25 37.328125 C54.53875 37.9675 54.8275 38.606875 55.125 39.265625 C55.46560811 40.93082019 55.80058396 42.59719966 56.125 44.265625 C56.76308594 44.25402344 57.40117187 44.24242187 58.05859375 44.23046875 C58.88488281 44.22144531 59.71117187 44.21242187 60.5625 44.203125 C61.79806641 44.18572266 61.79806641 44.18572266 63.05859375 44.16796875 C65.125 44.265625 65.125 44.265625 66.125 45.265625 C66.21275605 47.41121327 66.23195219 49.55966921 66.22265625 51.70703125 C66.21782227 53.66479492 66.21782227 53.66479492 66.21289062 55.66210938 C66.20453401 57.0507819 66.19606905 58.43945377 66.1875 59.828125 C66.18248666 61.22070156 66.17792347 62.61327981 66.17382812 64.00585938 C66.16199434 67.4258237 66.1455088 70.84570344 66.125 74.265625 C65.42270264 74.38244629 64.72040527 74.49926758 63.99682617 74.61962891 C63.08392822 74.78382324 62.17103027 74.94801758 61.23046875 75.1171875 C60.32192139 75.27525879 59.41337402 75.43333008 58.47729492 75.59619141 C55.89406093 76.06625611 55.89406093 76.06625611 54.4375 78.640625 C54.1179752 81.32463335 54.05486099 82.79607345 55.125 85.265625 C55.66125 85.74 56.1975 86.214375 56.75 86.703125 C57.430625 87.4765625 57.430625 87.4765625 58.125 88.265625 C57.81677337 92.68539967 56.20687798 94.66156179 53.08984375 97.69140625 C52.28095703 98.48740234 51.47207031 99.28339844 50.63867188 100.10351562 C49.78853516 100.92013672 48.93839844 101.73675781 48.0625 102.578125 C47.20849609 103.41408203 46.35449219 104.25003906 45.47460938 105.11132812 C43.36678688 107.17204844 41.25020151 109.22285709 39.125 111.265625 C35.30712891 109.47119141 35.30712891 109.47119141 33.66796875 107.62109375 C32.18376449 106.0279344 32.18376449 106.0279344 29.86328125 106.19140625 C29.06277344 106.31902344 28.26226562 106.44664062 27.4375 106.578125 C26.62925781 106.69800781 25.82101563 106.81789063 24.98828125 106.94140625 C24.06595703 107.10189453 24.06595703 107.10189453 23.125 107.265625 C23.14820313 107.89210938 23.17140625 108.51859375 23.1953125 109.1640625 C23.21335937 109.98132813 23.23140625 110.79859375 23.25 111.640625 C23.27320313 112.45273438 23.29640625 113.26484375 23.3203125 114.1015625 C23.125 116.265625 23.125 116.265625 21.125 118.265625 C18.34350586 118.50854492 18.34350586 118.50854492 14.83984375 118.49609375 C13.58751953 118.49416016 12.33519531 118.49222656 11.04492188 118.49023438 C9.73072266 118.47798828 8.41652344 118.46574219 7.0625 118.453125 C5.74443359 118.45248047 4.42636719 118.45183594 3.06835938 118.45117188 C-6.73490877 118.40571623 -6.73490877 118.40571623 -7.875 117.265625 C-8.07659109 114.97644619 -8.19392937 112.69000437 -8.30078125 110.39453125 C-8.66868828 108.07292361 -8.66868828 108.07292361 -10.91796875 106.98046875 C-11.56378906 106.74457031 -12.20960938 106.50867188 -12.875 106.265625 C-12.545 104.285625 -12.215 102.305625 -11.875 100.265625 C-10.3125 99.515625 -10.3125 99.515625 -7.875 99.265625 C-5.37213591 100.39646937 -3.20492278 101.78702016 -0.875 103.265625 C-0.875 105.905625 -0.875 108.545625 -0.875 111.265625 C4.075 110.935625 9.025 110.605625 14.125 110.265625 C14.455 108.615625 14.785 106.965625 15.125 105.265625 C16.125 102.265625 16.125 102.265625 19.546875 100.51953125 C20.98458967 99.94311417 22.4276159 99.37981278 23.875 98.828125 C24.59171875 98.52197266 25.3084375 98.21582031 26.046875 97.90039062 C28.12584345 97.09975847 29.90588628 96.48102301 32.125 96.265625 C35.140625 98.10546875 35.140625 98.10546875 37.125 100.265625 C40.34024305 98.85717782 42.44683868 97.16217714 44.875 94.640625 C45.48859375 94.00898437 46.1021875 93.37734375 46.734375 92.7265625 C47.19328125 92.24445313 47.6521875 91.76234375 48.125 91.265625 C47.83625 90.688125 47.5475 90.110625 47.25 89.515625 C46.693125 88.401875 46.693125 88.401875 46.125 87.265625 C45.52558594 86.29882812 45.52558594 86.29882812 44.9140625 85.3125 C43.84845255 82.54824448 44.45680601 81.2439785 45.5 78.515625 C45.79648438 77.71640625 46.09296875 76.9171875 46.3984375 76.09375 C46.63820313 75.49046875 46.87796875 74.8871875 47.125 74.265625 C47.785 74.265625 48.445 74.265625 49.125 74.265625 C48.795 73.275625 48.465 72.285625 48.125 71.265625 C49.125 69.765625 49.125 69.765625 51.125 68.265625 C53.765 68.265625 56.405 68.265625 59.125 68.265625 C59.125 62.655625 59.125 57.045625 59.125 51.265625 C56.485 51.265625 53.845 51.265625 51.125 51.265625 C49.3125 49.265625 49.3125 49.265625 48.125 46.265625 C47.84914063 45.62625 47.57328125 44.986875 47.2890625 44.328125 C45.76503463 40.63690154 44.4323626 37.30600985 45.125 33.265625 C46.625 31.453125 46.625 31.453125 48.125 30.265625 C46.71655282 27.05038195 45.02155214 24.94378632 42.5 22.515625 C41.86835938 21.90203125 41.23671875 21.2884375 40.5859375 20.65625 C40.10382813 20.19734375 39.62171875 19.7384375 39.125 19.265625 C36.4344472 20.48570444 36.4344472 20.48570444 34.125 22.265625 C27.43338931 21.84739933 22.05288701 19.22956851 16.125 16.265625 C15.135 12.800625 15.135 12.800625 14.125 9.265625 C9.175 8.935625 4.225 8.605625 -0.875 8.265625 C-0.875 10.575625 -0.875 12.885625 -0.875 15.265625 C-2.8125 16.953125 -2.8125 16.953125 -5.875 18.265625 C-6.58785156 18.62785156 -7.30070312 18.99007812 -8.03515625 19.36328125 C-13.96925905 22.28575258 -13.96925905 22.28575258 -17.6875 22.203125 C-19.875 21.265625 -19.875 21.265625 -23.875 18.265625 C-27.175 21.565625 -30.475 24.865625 -33.875 28.265625 C-32.555 29.915625 -31.235 31.565625 -29.875 33.265625 C-29.73351087 39.20816858 -33.24752463 45.05505729 -35.875 50.265625 C-36.205 50.595625 -36.535 50.925625 -36.875 51.265625 C-39.185 51.265625 -41.495 51.265625 -43.875 51.265625 C-43.545 55.885625 -43.215 60.505625 -42.875 65.265625 C-41.781875 65.61625 -40.68875 65.966875 -39.5625 66.328125 C-36.21117593 67.75566669 -35.85586039 68.29852121 -33.875 71.703125 C-32.57899221 76.32015275 -32.57899221 76.32015275 -33.875 79.265625 C-36.35 79.760625 -36.35 79.760625 -38.875 80.265625 C-39.205 79.275625 -39.535 78.285625 -39.875 77.265625 C-40.9475 77.141875 -42.02 77.018125 -43.125 76.890625 C-48.55241935 75.98605511 -48.55241935 75.98605511 -50.875 74.265625 C-52.65974007 70.64002593 -53.09513079 67.86532158 -52.921875 63.8515625 C-52.87933594 62.84351563 -52.83679688 61.83546875 -52.79296875 60.796875 C-52.73753906 59.7553125 -52.68210937 58.71375 -52.625 57.640625 C-52.58503906 56.59132812 -52.54507813 55.54203125 -52.50390625 54.4609375 C-52.13355116 46.65345173 -52.13355116 46.65345173 -49.875 43.265625 C-46.905 43.595625 -43.935 43.925625 -40.875 44.265625 C-40.91625 43.5025 -40.9575 42.739375 -41 41.953125 C-40.875 39.265625 -40.875 39.265625 -38.875 36.265625 C-39.535 35.646875 -40.195 35.028125 -40.875 34.390625 C-42.875 32.265625 -42.875 32.265625 -42.875 30.265625 C-43.535 30.265625 -44.195 30.265625 -44.875 30.265625 C-42.51113278 24.84092159 -38.16329025 21.1055381 -34.0625 16.953125 C-33.25490234 16.10427734 -32.44730469 15.25542969 -31.61523438 14.38085938 C-30.43477539 13.18493164 -30.43477539 13.18493164 -29.23046875 11.96484375 C-28.15768677 10.86402466 -28.15768677 10.86402466 -27.06323242 9.7409668 C-24.875 8.265625 -24.875 8.265625 -22.27075195 8.40551758 C-19.27263526 9.48188211 -17.30181811 11.23234496 -14.875 13.265625 C-14.215 13.265625 -13.555 13.265625 -12.875 13.265625 C-12.545 12.605625 -12.215 11.945625 -11.875 11.265625 C-11.215 10.935625 -10.555 10.605625 -9.875 10.265625 C-9.215 10.595625 -8.555 10.925625 -7.875 11.265625 C-8.37 6.810625 -8.37 6.810625 -8.875 2.265625 C-5.42139557 -0.03677795 -4.07000616 0.00870723 0 0 Z " fill="#FDFDFD" transform="translate(150.875,33.734375)"/>
<path d="M0 0 C5.61 0 11.22 0 17 0 C18.01973129 3.05919388 18.11533602 5.12418025 18.09765625 8.32421875 C18.09443359 9.35224609 18.09121094 10.38027344 18.08789062 11.43945312 C18.07951172 12.51130859 18.07113281 13.58316406 18.0625 14.6875 C18.05798828 15.77095703 18.05347656 16.85441406 18.04882812 17.97070312 C18.03703743 20.64719085 18.02058063 23.32356777 18 26 C19.12752686 25.53895874 19.12752686 25.53895874 20.27783203 25.06860352 C30.16028613 21.09802323 38.08300616 20.78038144 48 25 C50.625 27.0625 50.625 27.0625 52 29 C52 29.66 52 30.32 52 31 C52.66 31 53.32 31 54 31 C54.66666667 33 55.33333333 35 56 37 C56.35368652 37.85803223 56.70737305 38.71606445 57.07177734 39.60009766 C58.29687104 44.08738192 58.14416602 48.15220415 57.9765625 52.7734375 C57.93902359 54.1590538 57.93902359 54.1590538 57.90072632 55.57266235 C57.81891467 58.50716996 57.72217578 61.440965 57.625 64.375 C57.56672073 66.37106516 57.50941833 68.3671591 57.453125 70.36328125 C57.31339386 75.24259327 57.16027862 80.12132147 57 85 C51.39 85 45.78 85 40 85 C39.95101562 82.41027344 39.90203125 79.82054687 39.8515625 77.15234375 C39.7974567 74.62697887 39.74018705 72.10170402 39.68261719 69.57641602 C39.64448087 67.82974027 39.60960198 66.08299009 39.578125 64.33618164 C39.53213913 61.81629954 39.47420253 59.2969231 39.4140625 56.77734375 C39.40251129 56.00414291 39.39096008 55.23094208 39.37905884 54.43431091 C39.23411699 49.03454746 38.98064834 43.36154225 35.375 39.0625 C31.91789566 37.51590069 28.68424783 37.46530797 25 38 C21.91961879 39.27233137 20.47920008 40.11272945 18.89306641 43.04956055 C17.67795457 47.06394724 17.6442182 50.84560133 17.5859375 55.01953125 C17.56657135 55.87810226 17.5472052 56.73667328 17.5272522 57.6212616 C17.46768444 60.35157474 17.42116266 63.08193057 17.375 65.8125 C17.33679921 67.66863773 17.29774625 69.52475812 17.2578125 71.38085938 C17.16040445 75.92048048 17.08065581 80.4599269 17 85 C11.39 85 5.78 85 0 85 C0 56.95 0 28.9 0 0 Z " fill="#FEFEFE" transform="translate(622,60)"/>
<path d="M0 0 C6.31314633 1.31769721 9.59640695 5.13081893 13.875 9.625 C14.56335938 10.33140625 15.25171875 11.0378125 15.9609375 11.765625 C17.65007434 13.50168231 19.32913151 15.24638373 21 17 C20.73445313 17.85722656 20.46890625 18.71445313 20.1953125 19.59765625 C19.84210938 20.74105469 19.48890625 21.88445312 19.125 23.0625 C18.75503906 24.24714844 18.38507813 25.43179688 18.00390625 26.65234375 C17.25624046 29.1455328 16.6264871 31.58979586 16.0625 34.125 C14.69581532 37.82308795 13.51127073 38.30124716 10 40 C7.58734364 40.40556744 5.1745673 40.81042128 2.76171875 41.21484375 C-10.3830696 44.44594105 -19.73523979 55.86444962 -28.88793945 65.21362305 C-31.62304749 68.00579288 -34.41301822 70.73461261 -37.22205925 73.4521122 C-48.58495718 84.49750901 -58.22547063 93.96821935 -60.9387207 110.22631836 C-62 114 -62 114 -64.9440918 115.97802734 C-65.9525415 116.31527832 -66.96099121 116.6525293 -68 117 C-68.9178125 117.31324219 -69.835625 117.62648438 -70.78125 117.94921875 C-71.6784375 118.19285156 -72.575625 118.43648438 -73.5 118.6875 C-74.3971875 118.93886719 -75.294375 119.19023437 -76.21875 119.44921875 C-83.56255792 120.90354026 -83.56255792 120.90354026 -86.91210938 118.7980957 C-89.06774905 117.07145327 -91.03633849 115.25472519 -93 113.3125 C-94.02287109 112.30159302 -94.02287109 112.30159302 -95.06640625 111.27026367 C-98.21354023 107.88033943 -99.86428131 105.90479126 -100.5625 101.25 C-100.02206798 97.94735987 -99.22044424 95.10944066 -98 92 C-97.64861114 90.67131089 -97.30693788 89.33965594 -97 88 C-96.34 88 -95.68 88 -95 88 C-95 87.236875 -95 86.47375 -95 85.6875 C-94 83 -94 83 -90.8125 81.4375 C-88.18189727 80.56593469 -85.60014669 79.91773801 -82.88349915 79.35884094 C-72.9151771 77.09187415 -67.07327627 72.50680112 -60.16796875 65.35546875 C-59.11596013 64.30002778 -58.06215517 63.2463746 -57.00666809 62.19441223 C-54.81868857 60.00315378 -52.64856074 57.79612589 -50.4909668 55.57495117 C-47.73202889 52.7361657 -44.93859438 49.93456062 -42.13202953 47.14293957 C-39.96093656 44.97799386 -37.80535007 42.79813985 -35.65447426 40.61312294 C-34.62930453 39.5739565 -33.60026267 38.53859457 -32.56722069 37.50725365 C-31.1290283 36.06544942 -29.71280625 34.60183127 -28.29760742 33.13745117 C-27.48934006 32.31234543 -26.68107269 31.48723969 -25.84831238 30.63713074 C-23.57609105 27.3951762 -23.31256021 24.90618858 -23 21 C-22.69096017 19.66082739 -22.37057089 18.32346746 -22 17 C-21.34 17 -20.68 17 -20 17 C-20.495 15.02 -20.495 15.02 -21 13 C-20.34 13 -19.68 13 -19 13 C-19.495 11.515 -19.495 11.515 -20 10 C-19.0625 7.8125 -19.0625 7.8125 -18 6 C-17.01 6 -16.02 6 -15 6 C-14.67 5.34 -14.34 4.68 -14 4 C-12.22265625 3.33203125 -12.22265625 3.33203125 -10.0625 2.8125 C-9.35222656 2.63332031 -8.64195312 2.45414062 -7.91015625 2.26953125 C-6 2 -6 2 -4 3 C-3.67 2.34 -3.34 1.68 -3 1 C-2.01 1.33 -1.02 1.66 0 2 C0 1.34 0 0.68 0 0 Z M-12 12 C-13.96493838 15.19718787 -14.61136736 18.29390907 -15 22 C-15.10570312 22.83144531 -15.21140625 23.66289063 -15.3203125 24.51953125 C-14.86390773 28.05388523 -13.22354206 29.37353132 -10.6875 31.8125 C-9.88699219 32.60269531 -9.08648437 33.39289063 -8.26171875 34.20703125 C-6.08921513 36.3106114 -6.08921513 36.3106114 -3 36 C-3 35.34 -3 34.68 -3 34 C-2.01 34.33 -1.02 34.66 0 35 C3.02496878 34.15835673 3.02496878 34.15835673 6 33 C6.99 32.67 7.98 32.34 9 32 C9.12375 30.989375 9.2475 29.97875 9.375 28.9375 C9.98085335 25.12062388 10.87193912 21.68499888 12 18 C11.2575 17.2575 10.515 16.515 9.75 15.75 C8.10363932 14.10363932 6.48725477 12.42510384 4.9375 10.6875 C0.66138484 6.96314164 -7.37979017 9.58194626 -12 12 Z M-19 33 C-19 33.66 -19 34.32 -19 35 C-19.85099274 35.36301712 -19.85099274 35.36301712 -20.71917725 35.73336792 C-23.44751337 37.24852207 -25.29187761 39.05217576 -27.49316406 41.26611328 C-28.37377502 42.14687531 -29.25438599 43.02763733 -30.16168213 43.93508911 C-31.11310431 44.89672351 -32.06441603 45.8584672 -33.015625 46.8203125 C-33.99596129 47.80438107 -34.97674168 48.78800742 -35.95794678 49.77120972 C-38.53354467 52.35442714 -41.10307857 54.94359512 -43.67138672 57.53405762 C-46.29551067 60.1786762 -48.92533771 62.8176101 -51.5546875 65.45703125 C-56.7087167 70.63248072 -61.85635157 75.81423122 -67 81 C-65.64062915 83.8605891 -64.35479531 85.85927699 -62 88 C-58.38307227 86.47102424 -56.0796478 84.32184367 -53.32324219 81.55029297 C-52.40258972 80.62948944 -51.48193726 79.70868591 -50.53338623 78.75997925 C-49.5377747 77.75415535 -48.54227352 76.7482222 -47.546875 75.7421875 C-46.52169807 74.71327851 -45.49607725 73.68481163 -44.47003174 72.6567688 C-41.77606836 69.95518419 -39.08816632 67.24764659 -36.40148926 64.53881836 C-33.65671696 61.77355511 -30.90624528 59.01397367 -28.15625 56.25390625 C-22.76524427 50.84147726 -17.38063036 45.42274562 -12 40 C-12.97566112 38.83040013 -13.955625 37.66438823 -14.9375 36.5 C-15.48277344 35.8503125 -16.02804688 35.200625 -16.58984375 34.53125 C-17.05519531 34.0259375 -17.52054688 33.520625 -18 33 C-18.33 33 -18.66 33 -19 33 Z M-80.875 86.1875 C-82.47988281 86.51814453 -82.47988281 86.51814453 -84.1171875 86.85546875 C-88.44498807 88.57368767 -89.24027906 91.28779311 -91.046875 95.359375 C-91.8556282 98.10913587 -92.2408635 100.13076635 -92 103 C-89.67623235 106.98111814 -86.94432145 109.62642603 -83 112 C-79.68107418 112.56216333 -77.18130129 111.98668179 -74 111 C-72.865625 110.79375 -71.73125 110.5875 -70.5625 110.375 C-67.68991214 109.17977137 -67.68991214 109.17977137 -66.6875 105.875 C-66.3471875 103.956875 -66.3471875 103.956875 -66 102 C-65.78601563 101.36578125 -65.57203125 100.7315625 -65.3515625 100.078125 C-64.70976357 97.75276656 -64.50771524 96.37865026 -65 94 C-67.62540416 90.55315037 -70.62537428 87.70973664 -74 85 C-76.30967425 85 -78.63472502 85.70130123 -80.875 86.1875 Z " fill="#FDFDFD" transform="translate(160,71)"/>
<path d="M0 0 C0.78310547 0.59748047 0.78310547 0.59748047 1.58203125 1.20703125 C-1.41796875 5.20703125 -4.41796875 9.20703125 -7.41796875 13.20703125 C-8.12050781 12.91183594 -8.82304687 12.61664063 -9.546875 12.3125 C-12.45950174 11.19103964 -15.3381908 10.31559557 -18.35546875 9.51953125 C-19.35449219 9.24753906 -20.35351562 8.97554687 -21.3828125 8.6953125 C-24.68184936 8.16457941 -27.17388543 8.48666103 -30.41796875 9.20703125 C-30.74796875 10.19703125 -31.07796875 11.18703125 -31.41796875 12.20703125 C-28.6414405 14.9835595 -25.64930658 14.9534295 -21.91796875 15.51953125 C-13.71622375 16.92394592 -6.00723491 18.84870038 -0.35546875 25.39453125 C2.94348186 30.18333052 3.70101133 34.40250305 3.58203125 40.20703125 C1.9871364 46.05161429 -1.38485186 49.88327482 -6.41796875 53.20703125 C-15.84196225 58.11701106 -27.41401842 57.35994563 -37.35546875 54.51953125 C-42.58763157 52.71734183 -46.90547519 50.39232082 -51.41796875 47.20703125 C-49.92720441 43.92433805 -48.03176554 41.27625684 -45.79296875 38.45703125 C-45.16132813 37.6578125 -44.5296875 36.85859375 -43.87890625 36.03515625 C-43.39679688 35.431875 -42.9146875 34.82859375 -42.41796875 34.20703125 C-41.31001953 34.73103516 -41.31001953 34.73103516 -40.1796875 35.265625 C-33.11570197 38.43409627 -24.95501668 42.04310096 -17.16796875 39.4609375 C-15.23208966 38.32663326 -15.23208966 38.32663326 -14.66796875 36.08203125 C-14.58546875 35.46328125 -14.50296875 34.84453125 -14.41796875 34.20703125 C-15.13339844 34.1090625 -15.84882813 34.01109375 -16.5859375 33.91015625 C-40.02640896 30.39256933 -40.02640896 30.39256933 -47.41796875 22.20703125 C-50.44230765 17.48586854 -50.88490301 12.8431966 -49.98046875 7.37890625 C-48.85364837 3.02812757 -47.40356445 -0.38412036 -43.65625 -3.04296875 C-29.35698394 -10.68422684 -13.08597257 -9.41915014 0 0 Z " fill="#FEFEFE" transform="translate(494.41796875,89.79296875)"/>
<path d="M0 0 C4.57989255 3.44309779 8.74493028 7.25302333 12 12 C12 12.66 12 13.32 12 14 C9.92227529 14.86772029 7.83756823 15.71873619 5.75 16.5625 C4.58984375 17.03816406 3.4296875 17.51382813 2.234375 18.00390625 C-2.09311536 19.33664785 -2.09311536 19.33664785 -5 18 C-6.36125 16.7934375 -6.36125 16.7934375 -7.75 15.5625 C-11.19205526 12.60354021 -14.43567168 11.1905255 -19 11 C-23.76139173 11.76088138 -27.07448358 13.07448358 -30.5 16.5 C-33.64528403 21.74214005 -33.62236953 27.04059859 -33 33 C-30.9976035 37.004793 -28.82001123 39.6587028 -25 42 C-20.14324206 43.61891931 -16.28879468 43.42959823 -11.4375 41.8125 C-7.74664474 39.86641268 -5.08456023 37.78362752 -2 35 C2.29 36.65 6.58 38.3 11 40 C9.77533955 46.12330223 7.59524808 48.90890683 3 53 C-6.77248132 59.10030659 -16.61635415 60.60931204 -28.01171875 58.421875 C-37.13720061 55.55795773 -44.41493522 49.48795323 -49.0625 41.125 C-52.58303396 33.07271487 -53.0810565 24.27180193 -50 16 C-47.46457742 10.90149568 -44.28324124 6.77333156 -40 3 C-39.26523437 2.35224609 -39.26523437 2.35224609 -38.515625 1.69140625 C-27.72893838 -6.96362564 -11.60161596 -7.31692825 0 0 Z " fill="#FEFEFE" transform="translate(300,87)"/>
<path d="M0 0 C5.94 0 11.88 0 18 0 C18.33 4.95 18.66 9.9 19 15 C24.445 15.495 24.445 15.495 30 16 C31.06095867 21.30479335 31.7280615 25.81581551 30 31 C26.04 31 22.08 31 18 31 C18.33 41.89 18.66 52.78 19 64 C22.3 64.33 25.6 64.66 29 65 C29 69.95 29 74.9 29 80 C8.83250532 80.54506742 8.83250532 80.54506742 2.5 74.6875 C-0.44103633 69.41814324 -0.13909795 63.65628088 -0.09765625 57.7578125 C-0.0962413 56.98944061 -0.09482635 56.22106873 -0.09336853 55.42941284 C-0.08780683 52.99456761 -0.0752616 50.55981706 -0.0625 48.125 C-0.05748004 46.46614717 -0.05291801 44.80729288 -0.04882812 43.1484375 C-0.03784998 39.0989223 -0.02061206 35.04947716 0 31 C-2.31 31 -4.62 31 -7 31 C-7 26.05 -7 21.1 -7 16 C-4.69 16 -2.38 16 0 16 C0 10.72 0 5.44 0 0 Z " fill="#FEFEFE" transform="translate(405,66)"/>
<path d="M0 0 C0.31241371 2.54941373 0.51303421 5.00361513 0.625 7.5625 C0.66367187 8.27341797 0.70234375 8.98433594 0.7421875 9.71679688 C0.83671783 11.47742425 0.91945817 13.23867728 1 15 C4.63 15.33 8.26 15.66 12 16 C12 20.95 12 25.9 12 31 C8.04 31 4.08 31 0 31 C0.33 41.89 0.66 52.78 1 64 C4.3 64.33 7.6 64.66 11 65 C11 69.95 11 74.9 11 80 C-9.06413994 80.54227405 -9.06413994 80.54227405 -15.5 74.75 C-18.49051018 69.267398 -18.14225754 62.99346077 -18.09765625 56.87890625 C-18.0962413 56.13414536 -18.09482635 55.38938446 -18.09336853 54.62205505 C-18.08781989 52.26882727 -18.07527733 49.9156985 -18.0625 47.5625 C-18.05747835 45.95638159 -18.05291661 44.35026168 -18.04882812 42.74414062 C-18.03786735 38.82938957 -18.02063884 34.91471151 -18 31 C-20.31 31 -22.62 31 -25 31 C-25 26.05 -25 21.1 -25 16 C-21.535 15.505 -21.535 15.505 -18 15 C-18.01160156 14.00097656 -18.02320313 13.00195312 -18.03515625 11.97265625 C-18.04417969 10.68230469 -18.05320312 9.39195313 -18.0625 8.0625 C-18.07410156 6.77472656 -18.08570313 5.48695312 -18.09765625 4.16015625 C-18 1 -18 1 -17 0 C-14.51430624 -0.2641233 -12.05516385 -0.46848925 -9.5625 -0.625 C-8.86833984 -0.6765625 -8.17417969 -0.728125 -7.45898438 -0.78125 C-2.24848963 -1.12424481 -2.24848963 -1.12424481 0 0 Z " fill="#FEFEFE" transform="translate(716,66)"/>
<path d="M0 0 C0 0.66 0 1.32 0 2 C0.58007812 2.11085938 1.16015625 2.22171875 1.7578125 2.3359375 C8.34720636 4.28750014 14.2648383 10.39171567 18 16 C23.22697577 26.05316107 23.7554223 34.59951849 21.1328125 45.5625 C17.81912977 55.61781312 10.62927094 62.17073832 1.66015625 67.3515625 C-5.12182102 70.58316917 -11.69717203 70.50726973 -19 69 C-19.66 68.34 -20.32 67.68 -21 67 C-20.1875 64.5625 -20.1875 64.5625 -19 62 C-16.12207803 61.04069268 -14.85518867 60.99157535 -11.9375 61.1875 C-5.18451799 61.2535977 0.56852428 58.94518058 5.8125 54.75 C10.65787565 48.65867061 13.75254779 43.90300482 14 36 C14.1546875 34.0509375 14.1546875 34.0509375 14.3125 32.0625 C14.21471899 25.841183 11.20033603 20.83580805 7.875 15.75 C2.75474552 10.85236528 -3.77031354 7.41044285 -10.9375 6.93359375 C-19.36127716 7.20481385 -26.32351324 9.59143696 -32.5 15.4140625 C-38.34800279 21.92344656 -39.33672744 27.88921755 -39.59375 36.328125 C-40 39 -40 39 -41.39453125 40.87890625 C-43 42 -43 42 -45.1875 41.6875 C-45.785625 41.460625 -46.38375 41.23375 -47 41 C-47 40.34 -47 39.68 -47 39 C-47.66 39 -48.32 39 -49 39 C-49.09764874 34.21521178 -48.77112541 29.72314313 -48 25 C-47.34 25 -46.68 25 -46 25 C-46.33 24.01 -46.66 23.02 -47 22 C-42.08581886 11.98263075 -34.45504926 4.23180565 -24 0 C-23.34 0.33 -22.68 0.66 -22 1 C-21.67 0.34 -21.34 -0.32 -21 -1 C-14.35270001 -2.92421842 -6.59752669 -1.82748392 0 0 Z " fill="#FDFDFD" transform="translate(171,59)"/>
<path d="M0 0 C0.74378906 -0.00257812 1.48757813 -0.00515625 2.25390625 -0.0078125 C4.4375 0.125 4.4375 0.125 8.4375 1.125 C8.4375 21.585 8.4375 42.045 8.4375 63.125 C2.4975 63.125 -3.4425 63.125 -9.5625 63.125 C-9.5625 42.665 -9.5625 22.205 -9.5625 1.125 C-6.05711307 0.42392261 -3.45972651 -0.01203383 0 0 Z " fill="#FEFEFE" transform="translate(519.5625,81.875)"/>
<path d="M0 0 C2.34417779 3.75068447 2.3376661 7.19703715 1.5625 11.5 C-0.475802 14.63584923 -1.80875791 15.31271512 -5.375 16.375 C-9.45815224 16.54165928 -11.89381262 15.60263384 -15.1875 13.25 C-17.04783153 10.64553585 -17.3125279 8.68678861 -17.4375 5.5 C-16.21853747 1.9785527 -15.35097852 0.08361128 -12.1875 -1.9375 C-7.60334164 -2.87516876 -4.00697348 -2.46582984 0 0 Z " fill="#FEFEFE" transform="translate(526.4375,61.5)"/>
<path d="" fill="#FFFFFF" transform="translate(0,0)"/>
</svg>
