<svg xmlns="http://www.w3.org/2000/svg" width="430" height="430" style="width:100%;height:100%;transform:translate3d(0,0,0);content-visibility:visible" viewBox="0 0 430 430"><defs><filter id="a" width="100%" height="100%" x="0%" y="0%" filterUnits="objectBoundingBox"><feComponentTransfer in="SourceGraphic"><feFuncA tableValues="1.0 0.0" type="table"/></feComponentTransfer></filter><filter id="c" width="100%" height="100%" x="0%" y="0%" filterUnits="objectBoundingBox"><feComponentTransfer in="SourceGraphic"><feFuncA tableValues="1.0 0.0" type="table"/></feComponentTransfer></filter><filter id="e" width="100%" height="100%" x="0%" y="0%" filterUnits="objectBoundingBox"><feComponentTransfer in="SourceGraphic"><feFuncA tableValues="1.0 0.0" type="table"/></feComponentTransfer></filter><path id="b" style="display:none"/><path id="d" style="display:none"/><path id="f" style="display:none"/><mask id="k" mask-type="alpha"><g filter="url(#a)"><path fill="#fff" d="M0 0h430v430H0z" opacity="0"/><use xmlns:ns1="http://www.w3.org/1999/xlink" ns1:href="#b"/></g></mask><mask id="j" mask-type="alpha"><g filter="url(#c)"><path fill="#fff" d="M0 0h430v430H0z" opacity="0"/><use xmlns:ns2="http://www.w3.org/1999/xlink" ns2:href="#d"/></g></mask><mask id="i" mask-type="alpha"><g filter="url(#e)"><path fill="#fff" d="M0 0h430v430H0z" opacity="0"/><use xmlns:ns3="http://www.w3.org/1999/xlink" ns3:href="#f"/></g></mask><clipPath id="g"><path d="M0 0h430v430H0z"/></clipPath><clipPath id="h"><path d="M0 0h430v430H0z"/></clipPath></defs><g clip-path="url(#g)"><g clip-path="url(#h)" style="display:block"><g mask="url(#i)" style="display:block"><path fill="none" stroke="#121330" stroke-linecap="round" stroke-linejoin="round" stroke-width="11.97" d="M326.194 375.119h-35.582l-.316-293.552h35.582zm21.923-293.552h-80.06V54.881h80.06zm-65.624 143.776h51.504m-51.504 21.679h51.504m-51.504 21.68h51.504m-51.504 21.679h51.504m-51.504 21.679h51.504m-51.504 21.68h51.504m-51.504 21.679h51.504" class="primary"/></g><g mask="url(#j)" style="display:block"><path fill="none" stroke="#07A889" stroke-linecap="round" stroke-linejoin="round" stroke-width="11.97" d="M232.791 348.433 215 375.119l-17.791-26.686V135.667h35.582zm22.239-212.766h-80.06q0 0 0 0c0-22.108 17.922-40.03 40.03-40.03q0 0 0 0c22.108 0 40.03 17.922 40.03 40.03q0 0 0 0m-13.343 81.739L188.313 239.5m53.374.426-53.374 22.094m53.374.426-53.374 22.094m53.374.427-53.374 22.094m53.374.426-53.374 22.094m53.297.426-53.374 22.094" class="secondary"/></g><g mask="url(#k)" style="display:block"><path fill="none" stroke="#121330" stroke-linecap="round" stroke-linejoin="round" stroke-width="11.97" d="M139.388 91h-35.582L81.567 54.88h80.06zm0 257.157-17.791 26.963-17.791-26.963V91h35.582zm8.935-142.011L94.949 228.24m53.374.426L94.949 250.76m53.374.426L94.949 273.28m53.374.427-53.374 22.094m53.374.426-53.374 22.094m53.297.426-53.374 22.094" class="primary"/></g><path fill="none" class="secondary" style="display:none"/></g></g></svg>