<svg width="430" height="430" viewBox="0 0 430 430" fill="none" xmlns="http://www.w3.org/2000/svg">
<path d="M374.76 28.2793H281.72V68.2293H374.76V28.2793Z" stroke="#121331" stroke-width="12" stroke-linecap="round" stroke-linejoin="round"/>
<path d="M215 94.9102C237.09 94.9102 255.03 112.85 255.03 134.94H174.97C174.97 112.85 192.91 94.9102 215 94.9102Z" stroke="#08A88A" stroke-width="12" stroke-linecap="round" stroke-linejoin="round"/>
<path d="M121.6 68.2193H81.4799L54.8799 28.2793H148.28L121.6 68.2193Z" stroke="#121331" stroke-width="12" stroke-linecap="round" stroke-linejoin="round"/>
<path d="M121.599 68.2188V375.119L101.369 401.809L81.4795 375.119V68.2188" stroke="#121331" stroke-width="12" stroke-linecap="round" stroke-linejoin="round"/>
<path d="M235.01 134.939V375.119L215 401.809L194.99 375.119V134.939" stroke="#08A88A" stroke-width="12" stroke-linecap="round" stroke-linejoin="round"/>
<path d="M348.43 68.2188V401.809H308.27L308.28 68.2188" stroke="#121331" stroke-width="12" stroke-linecap="round" stroke-linejoin="round"/>
<path d="M135.1 268.369L68.5498 281.719" stroke="#121331" stroke-width="12" stroke-linecap="round" stroke-linejoin="round"/>
<path d="M135.1 295.059L68.5498 308.399" stroke="#121331" stroke-width="12" stroke-linecap="round" stroke-linejoin="round"/>
<path d="M135.1 321.75L68.5498 335.09" stroke="#121331" stroke-width="12" stroke-linecap="round" stroke-linejoin="round"/>
<path d="M134.78 348.43L68.2197 361.78" stroke="#121331" stroke-width="12" stroke-linecap="round" stroke-linejoin="round"/>
<path d="M295.27 375.119H361.73" stroke="#121331" stroke-width="12" stroke-linecap="round" stroke-linejoin="round"/>
<path d="M295.32 348.43H361.78" stroke="#121331" stroke-width="12" stroke-linecap="round" stroke-linejoin="round"/>
<path d="M295.229 321.75H361.689" stroke="#121331" stroke-width="12" stroke-linecap="round" stroke-linejoin="round"/>
<path d="M295.149 295.059H361.599" stroke="#121331" stroke-width="12" stroke-linecap="round" stroke-linejoin="round"/>
<path d="M295.06 268.369H361.52" stroke="#121331" stroke-width="12" stroke-linecap="round" stroke-linejoin="round"/>
<path d="M248.44 268.369L181.88 281.719" stroke="#08A88A" stroke-width="12" stroke-linecap="round" stroke-linejoin="round"/>
<path d="M248.44 295.059L181.88 308.399" stroke="#08A88A" stroke-width="12" stroke-linecap="round" stroke-linejoin="round"/>
<path d="M248.44 321.75L181.88 335.09" stroke="#08A88A" stroke-width="12" stroke-linecap="round" stroke-linejoin="round"/>
<path d="M248.12 348.43L181.56 361.78" stroke="#08A88A" stroke-width="12" stroke-linecap="round" stroke-linejoin="round"/>
</svg>
